PathFileType  4	(X/Y/Z) C:\Users\antoi\Documents\MyRepositories\mobilecap\ResultsAnalysis
DataRate	CameraRate	NumFrames	NumMarkers	Units	OrigDataRate	OrigDataStartFrame	OrigNumFrames
100.0	100.0	6	55	mm	100.0	388	517
Frame#	Time	r_knee			r_shank_antsup			r_ankle			r_calc			r_5meta			r_toe			L_knee			L_shank_antsup			L_ankle			L_calc			L_5meta			L_toe			r_mknee			r_mankle			L_mknee			L_mankle			r_sh2			r_sh3			r_sh4			L_sh2			L_sh3			r_thigh1			r_thigh2			r_thigh3			r_thigh4			r_thigh5			L_thigh1			L_thigh2			L_thigh3			L_thigh4			r.ASIS			r.PSIS			L.ASIS			L.PSIS			C7			R_Shoulder			L_Shoulder			R_Sternum			L_Sternum			R_humerus			R_elbow_med			R_elbow_lat			R_forearm			R_wrist_radius			R_wrist_ulna			L_humerus			L_elbow_med			L_elbow_lat			L_forearm			L_wrist_radius			L_wrist_ulna			R_HJC			L_HJC			R_HJC_reg			L_HJC_reg			
		X1	Y1	Z1	X2	Y2	Z2	X3	Y3	Z3	X4	Y4	Z4	X5	Y5	Z5	X6	Y6	Z6	X7	Y7	Z7	X8	Y8	Z8	X9	Y9	Z9	X10	Y10	Z10	X11	Y11	Z11	X12	Y12	Z12	X13	Y13	Z13	X14	Y14	Z14	X15	Y15	Z15	X16	Y16	Z16	X17	Y17	Z17	X18	Y18	Z18	X19	Y19	Z19	X20	Y20	Z20	X21	Y21	Z21	X22	Y22	Z22	X23	Y23	Z23	X24	Y24	Z24	X25	Y25	Z25	X26	Y26	Z26	X27	Y27	Z27	X28	Y28	Z28	X29	Y29	Z29	X30	Y30	Z30	X31	Y31	Z31	X32	Y32	Z32	X33	Y33	Z33	X34	Y34	Z34	X35	Y35	Z35	X36	Y36	Z36	X37	Y37	Z37	X38	Y38	Z38	X39	Y39	Z39	X40	Y40	Z40	X41	Y41	Z41	X42	Y42	Z42	X43	Y43	Z43	X44	Y44	Z44	X45	Y45	Z45	X46	Y46	Z46	X47	Y47	Z47	X48	Y48	Z48	X49	Y49	Z49	X50	Y50	Z50	X51	Y51	Z51	X52	Y52	Z52	X53	Y53	Z53	X54	Y54	Z54	X55	Y55	Z55	

388	3.87000000	-216.35186	500.54171	-434.26191	-189.59280	409.32494	-437.94420	-283.68431	93.57963	-433.79661	-343.43985	57.86870	-478.23273	-162.65094	43.62414	-390.01152	-129.39558	70.22229	-446.37351	-217.07791	503.45655	-765.05405	-189.47866	420.63186	-758.73019	-274.79302	97.76344	-772.81334	-345.21612	50.14696	-725.40759	-167.72313	40.89813	-813.65596	-121.06579	64.83148	-756.95441	-230.78705	483.91982	-552.28802	-261.32232	110.86509	-509.80728	-228.53314	490.83594	-646.31391	-255.06831	103.73627	-691.78249	-203.16981	296.33144	-435.01375	-251.86861	416.01398	-395.75415	-271.12676	303.20209	-388.82227	-267.89202	443.89678	-801.54108	-283.44076	322.08750	-810.63527	-141.45373	778.88780	-430.69902	-143.94493	667.56177	-436.47623	-197.82149	642.30788	-403.91525	-252.21622	776.64946	-410.27869	-248.26657	661.02863	-419.47921	-123.98086	747.96259	-766.05123	-123.70827	608.00049	-749.42710	-227.25030	744.49744	-807.24568	-229.79677	612.60910	-779.77347	-105.51017	964.30370	-476.99387	-308.73791	1011.40741	-565.85104	-102.58033	962.78200	-733.62390	-305.07285	1011.02776	-658.99336	-276.15890	1462.80880	-612.21502	-213.48491	1431.91601	-443.65744	-186.96038	1433.16261	-762.57730	-149.61780	1391.65883	-580.99999	-149.87839	1393.85982	-626.51989	-173.51495	1301.12164	-393.21014	-260.59218	1098.93668	-426.06718	-243.81526	1110.41047	-360.96420	-182.46361	1049.64968	-346.43482	-124.55980	890.14279	-382.91183	-151.13912	888.95766	-340.30232	-154.84041	1291.34734	-815.78471	-239.64527	1094.57651	-781.47718	-205.39301	1104.99421	-853.27598	-150.50787	1050.07947	-852.95146	-98.98963	881.21504	-816.92371	-124.60033	881.65566	-862.89555	-195.84878	883.46731	-505.99613	-190.37630	882.88652	-695.47875	-185.70614	891.66730	-516.16236	-179.04598	890.97740	-685.41976	
389	3.88000000	-216.38112	500.48548	-434.33050	-189.65423	409.34273	-437.93444	-283.70885	93.55979	-433.81960	-343.43854	57.86387	-478.22348	-162.66079	43.56274	-390.05681	-129.40375	70.22835	-446.34567	-217.09724	503.47300	-765.05435	-189.53086	420.62818	-758.78452	-274.77814	97.77624	-772.81097	-345.24410	50.16059	-725.41537	-167.72695	40.90628	-813.63913	-121.07013	64.85100	-756.95611	-230.78604	483.91917	-552.29104	-261.31910	110.88771	-509.80462	-228.52889	490.83416	-646.30892	-255.09275	103.75781	-691.78014	-203.17917	296.36776	-435.00782	-251.93928	416.00653	-395.77948	-271.17448	303.17868	-388.80646	-267.90778	443.90948	-801.53323	-283.44845	322.10163	-810.62003	-141.55331	778.93853	-430.71700	-143.98002	667.58410	-436.48808	-197.86358	642.29567	-403.90390	-252.23806	776.63724	-410.34640	-248.30705	661.00116	-419.51665	-124.04654	747.92568	-766.15263	-123.75127	608.02777	-749.48329	-227.29775	744.48839	-807.23753	-229.82636	612.62358	-779.77555	-105.55140	964.30642	-477.06835	-308.75811	1011.43210	-565.87647	-102.62398	962.80092	-733.61877	-305.13593	1011.06055	-659.04661	-276.24288	1462.82053	-612.27866	-213.55722	1431.93094	-443.72154	-187.03706	1433.17869	-762.62376	-149.73494	1391.66107	-581.02589	-149.94742	1393.84168	-626.55405	-173.60020	1301.16594	-393.23541	-260.66209	1098.94952	-426.10300	-243.86567	1110.56012	-360.82731	-182.57264	1049.71005	-346.41740	-124.63157	890.17593	-382.80513	-151.18660	888.99763	-340.27936	-154.90020	1291.36003	-815.78522	-239.71203	1094.61554	-781.52305	-205.46533	1105.00899	-853.27391	-150.56186	1050.10006	-852.95799	-99.08720	881.25802	-817.01065	-124.70572	881.69157	-862.95173	-195.89839	883.48076	-506.03883	-190.42784	882.90970	-695.52153	-185.71045	891.70381	-516.19149	-179.13205	891.02901	-685.39956	
390	3.89000000	-216.42680	500.43865	-434.38904	-189.71637	409.35765	-437.91326	-283.72131	93.55380	-433.81714	-343.43891	57.87866	-478.22352	-162.64451	43.54502	-390.06281	-129.42480	70.22051	-446.34512	-217.13982	503.53987	-765.16505	-189.56551	420.62847	-758.80322	-274.75019	97.80226	-772.81462	-345.27209	50.16939	-725.42159	-167.71425	40.95363	-813.64155	-121.06386	64.89918	-756.95836	-230.78929	483.92236	-552.29339	-261.31508	110.90788	-509.80025	-228.53894	490.83479	-646.31983	-255.11488	103.77333	-691.77159	-203.20092	296.43387	-434.99450	-251.97717	416.01136	-395.77489	-271.17460	303.18517	-388.81344	-267.92926	443.92576	-801.52974	-283.45356	322.14447	-810.62284	-141.63929	779.00011	-430.66616	-143.95896	667.54939	-436.53573	-197.90636	642.26640	-403.89216	-252.25522	776.60710	-410.38877	-248.37444	660.96575	-419.54052	-124.07111	747.91058	-766.19180	-123.80237	608.02903	-749.55614	-227.37467	744.43096	-807.18357	-229.85669	612.64134	-779.77450	-105.61923	964.33067	-477.06624	-308.87155	1011.45193	-565.89676	-102.71449	962.81737	-733.51767	-305.20674	1011.11238	-659.14070	-276.33470	1462.84385	-612.34056	-213.63398	1431.93829	-443.82858	-187.10212	1433.18549	-762.65704	-149.84439	1391.65674	-581.08243	-150.04617	1393.87478	-626.62851	-173.66889	1301.23127	-393.23241	-260.73820	1098.99549	-426.06936	-243.90993	1110.64299	-360.74913	-182.67858	1049.78757	-346.33680	-124.69860	890.20515	-382.69027	-151.25568	889.05828	-340.22473	-154.96462	1291.39003	-815.79291	-239.78472	1094.65496	-781.60682	-205.53193	1105.04347	-853.27743	-150.63922	1050.14397	-852.98897	-99.16358	881.27857	-817.07848	-124.81225	881.67555	-862.93173	-196.01698	883.51396	-506.03339	-190.49683	882.93215	-695.51460	-185.80624	891.70387	-516.23149	-179.15849	891.08790	-685.37147	
391	3.90000000	-216.43401	500.46853	-434.36453	-189.75648	409.37450	-437.90967	-283.72318	93.59547	-433.78058	-343.44569	57.89402	-478.22562	-162.65003	43.60156	-389.97983	-129.42295	70.22252	-446.35080	-217.19990	503.64589	-765.35466	-189.57153	420.65027	-758.79981	-274.74984	97.82953	-772.80970	-345.26411	50.20660	-725.40346	-167.70881	40.99090	-813.63681	-121.06184	64.92091	-756.93522	-230.80737	483.91171	-552.30314	-261.31049	110.92977	-509.79011	-228.56802	490.83976	-646.36187	-255.09068	103.74925	-691.76912	-203.20370	296.46829	-434.97771	-251.96710	416.01535	-395.76216	-271.18820	303.17203	-388.82102	-267.96727	443.94115	-801.52573	-283.46736	322.19544	-810.63951	-141.70569	779.02038	-430.62776	-143.99023	667.56154	-436.51571	-197.92373	642.23785	-403.89213	-252.29833	776.57401	-410.41439	-248.44924	660.96912	-419.54424	-123.80051	748.15168	-765.77325	-123.84191	608.03677	-749.59522	-227.47375	744.35799	-807.07814	-229.89271	612.66294	-779.77527	-105.70216	964.37152	-477.04236	-309.04339	1011.42329	-565.90746	-102.83401	962.81836	-733.34750	-305.27347	1011.14631	-659.19220	-276.42218	1462.85675	-612.36154	-213.68836	1431.94675	-443.89646	-187.16555	1433.20212	-762.68080	-149.92177	1391.66618	-581.16151	-150.11922	1393.94275	-626.69821	-173.75910	1301.32007	-393.19525	-260.82824	1099.04859	-426.02843	-243.96053	1110.65081	-360.75855	-182.74538	1049.85836	-346.26357	-124.77194	890.25966	-382.59693	-151.34689	889.12672	-340.13586	-155.03964	1291.42704	-815.86888	-239.84464	1094.68265	-781.67734	-205.59447	1105.09412	-853.33549	-150.73276	1050.17927	-853.03138	-99.25382	881.27436	-817.14589	-124.91958	881.62386	-862.85332	-196.14913	883.54073	-505.98325	-190.56866	882.93374	-695.46262	-185.94171	891.64717	-516.31909	-179.11044	891.14527	-685.35537	
392	3.91000000	-216.42846	500.46259	-434.35025	-189.74990	409.39368	-437.94070	-283.70568	93.66417	-433.70960	-343.44981	57.88938	-478.22011	-162.67893	43.64361	-389.95816	-129.39904	70.24100	-446.34236	-217.24832	503.71817	-765.46541	-189.59124	420.68599	-758.79940	-274.78448	97.87657	-772.83548	-345.25546	50.23766	-725.33781	-167.71202	41.00298	-813.61783	-121.07508	64.90569	-756.90000	-230.83372	483.88338	-552.34815	-261.30407	110.96100	-509.77695	-228.59987	490.84395	-646.41024	-255.06539	103.73067	-691.77172	-203.19270	296.45650	-434.96843	-251.95435	416.02947	-395.77167	-271.22961	303.13114	-388.81564	-268.00175	443.96164	-801.51995	-283.48684	322.23788	-810.65390	-141.77709	779.02263	-430.65203	-144.28056	667.80150	-436.26309	-197.94625	642.25182	-403.92229	-252.36557	776.54754	-410.45171	-248.50634	661.01739	-419.50357	-123.32555	748.59481	-765.02475	-123.86466	608.06965	-749.58887	-227.54318	744.34273	-807.03023	-229.93400	612.69362	-779.78387	-105.77480	964.39604	-477.09249	-309.14628	1011.37914	-565.89855	-102.92491	962.82302	-733.23344	-305.33046	1011.16251	-659.18948	-276.51120	1462.84923	-612.36092	-213.74106	1431.96820	-443.88531	-187.24114	1433.23051	-762.72211	-149.96575	1391.70044	-581.20866	-150.16553	1393.97681	-626.73920	-173.86119	1301.39451	-393.16092	-260.91852	1099.11223	-426.05933	-244.02214	1110.67359	-360.76934	-182.81458	1049.90293	-346.21281	-124.87180	890.34003	-382.50172	-151.44461	889.18620	-340.03791	-155.13133	1291.46118	-816.00400	-239.88503	1094.69028	-781.68987	-205.65567	1105.12670	-853.41868	-150.82152	1050.18855	-853.08536	-99.36300	881.28359	-817.29652	-125.03032	881.62501	-862.87317	-196.22305	883.54373	-505.96229	-190.62981	882.93487	-695.44128	-186.00489	891.60078	-516.42529	-179.09539	891.20852	-685.35028	
393	3.92000000	-216.46117	500.33758	-434.41370	-189.72882	409.40070	-437.97270	-283.67417	93.67569	-433.67036	-343.44301	57.87607	-478.20766	-162.67629	43.61796	-390.06351	-129.38912	70.25844	-446.32201	-217.27982	503.73089	-765.46160	-189.63943	420.71214	-758.79930	-274.80463	97.92348	-772.87288	-345.27363	50.19818	-725.25015	-167.70472	41.01918	-813.61344	-121.08611	64.89511	-756.87684	-230.85152	483.86709	-552.40349	-261.29710	110.98858	-509.76729	-228.62107	490.84345	-646.43416	-255.08535	103.75299	-691.76983	-203.19652	296.43947	-434.96458	-251.97920	416.04067	-395.78094	-271.23685	303.12064	-388.81785	-268.01629	443.99680	-801.52259	-283.51094	322.25127	-810.64829	-141.85343	779.00900	-430.69300	-144.66930	668.10345	-435.94784	-197.98735	642.29342	-403.97982	-252.41740	776.54319	-410.46779	-248.53759	661.06196	-419.44137	-123.05632	748.82899	-764.60616	-123.89365	608.10479	-749.59681	-227.57714	744.36736	-807.04726	-229.97785	612.71993	-779.79075	-105.83570	964.38526	-477.19599	-309.15867	1011.37244	-565.89348	-102.98243	962.83899	-733.22896	-305.38882	1011.17892	-659.18052	-276.60101	1462.82430	-612.38776	-213.81910	1432.00119	-443.88592	-187.32419	1433.25742	-762.76986	-149.99584	1391.75566	-581.22774	-150.21165	1393.98383	-626.81152	-173.93812	1301.44060	-393.15020	-260.99540	1099.15884	-426.09461	-244.08279	1110.73092	-360.76198	-182.90726	1049.95274	-346.11227	-124.98385	890.41293	-382.39131	-151.52654	889.21247	-339.95305	-155.22328	1291.48496	-816.11209	-239.92904	1094.68757	-781.69953	-205.71728	1105.12492	-853.47390	-150.89200	1050.18325	-853.13093	-99.46533	881.29818	-817.46336	-125.13130	881.70003	-863.04901	-196.25867	883.53233	-505.99990	-190.69311	882.95058	-695.47979	-186.00715	891.61277	-516.48780	-179.18341	891.26246	-685.34493	
